<?xml version="1.0" encoding="UTF-8"?>
<svg width="173px" height="40px" viewBox="0 0 173 40" version="1.1" xmlns="http://www.w3.org/2000/svg" xmlns:xlink="http://www.w3.org/1999/xlink">
    <!-- Generator: Sketch 50.2 (55047) - http://www.bohemiancoding.com/sketch -->
    <title>mpsv logo</title>
    <desc>Created with Sketch.</desc>
    <defs>
        <polygon id="path-1" points="0 0.0437583162 38.9599393 0.0437583162 38.9599393 39.7215388 0 39.7215388"></polygon>
        <polygon id="path-3" points="0 40 39 40 39 0 0 0"></polygon>
    </defs>
    <g id="portal" stroke="none" stroke-width="1" fill="none" fill-rule="evenodd">
        <g id="msvp-portal-hp-mobil" transform="translate(-15.000000, -15.000000)">
            <g id="mpsv-logo" transform="translate(15.000000, 15.000000)">
                <g id="Page-1-Copy-4">
                    <g id="Group-3">
                        <mask id="mask-2" fill="white">
                            <use xlink:href="#path-1"></use>
                        </mask>
                        <g id="Clip-2"></g>
                        <path d="M32.8483619,0.0437260222 L6.11133264,0.0437260222 C2.73611925,0.0437260222 -8.15899582e-05,2.83021038 -8.15899582e-05,6.26774099 L-8.15899582e-05,33.4976853 C-8.15899582e-05,36.9350545 2.73611925,39.7215388 6.11133264,39.7215388 L32.8483619,39.7215388 C36.2235753,39.7215388 38.9599393,36.9350545 38.9599393,33.4976853 L38.9599393,6.26774099 C38.9599393,2.83021038 36.2235753,0.0437260222 32.8483619,0.0437260222 M35.1402238,31.9419238 C35.1402238,34.0902795 33.4300983,35.8318928 31.3205084,35.8318928 L7.63934937,35.8318928 C5.52975941,35.8318928 3.81963389,34.0902795 3.81963389,31.9419238 L3.81963389,7.82366399 C3.81963389,5.67530828 5.52975941,3.93369501 7.63934937,3.93369501 L31.3205084,3.93369501 C33.4300983,3.93369501 35.1402238,5.67530828 35.1402238,7.82366399 L35.1402238,31.9419238" id="Fill-1" fill="#FFFFFF" mask="url(#mask-2)"></path>
                    </g>
                    <mask id="mask-4" fill="white">
                        <use xlink:href="#path-3"></use>
                    </mask>
                    <g id="Clip-5"></g>
                    <polygon id="Fill-4" fill="#FFFFFF" mask="url(#mask-4)" points="3.42105263 20 36.2631579 20 36.2631579 19.3333333 3.42105263 19.3333333"></polygon>
                    <path d="M14.0374025,19.3333333 L8.9295809,8.1139823 L8.9295809,16.9734513 C8.9295809,17.8178171 9.01906676,18.3450147 9.19993908,18.553943 C9.43988791,18.8379154 9.82665692,18.979351 10.3599293,18.979351 L10.8301657,18.979351 L10.8301657,19.3333333 L6.15789474,19.3333333 L6.15789474,18.979351 L6.63541667,18.979351 C7.19909844,18.979351 7.60059698,18.8040905 7.83943713,18.4526254 C7.9854654,18.2363029 8.05847953,17.7434022 8.05847953,16.9734513 L8.05847953,8.35988201 C8.05847953,7.7519764 7.9916423,7.31319567 7.85923489,7.0427532 C7.766423,6.84735497 7.59695419,6.6832645 7.35193713,6.55174041 C7.10628655,6.42021632 6.7084308,6.3539823 6.15789474,6.3539823 L6.15789474,6 L9.9495614,6 L14.7296905,16.4042478 L19.4668981,6 L23.2631579,6 L23.2631579,6.3539823 L22.7952973,6.3539823 C22.2249635,6.3539823 21.8202973,6.52971485 21.5814571,6.88055064 C21.4355872,7.09687316 21.3625731,7.59040315 21.3625731,8.35988201 L21.3625731,16.9734513 C21.3625731,17.8178171 21.455385,18.3450147 21.6408504,18.553943 C21.8858674,18.8379154 22.2707359,18.979351 22.7952973,18.979351 L23.2631579,18.979351 L23.2631579,19.3333333 L17.5614035,19.3333333 L17.5614035,18.979351 L18.0389254,18.979351 C18.6094176,18.979351 19.0101243,18.8040905 19.2429459,18.4526254 C19.3889742,18.2363029 19.4619883,17.7434022 19.4619883,16.9734513 L19.4619883,8.1139823 L14.3541667,19.3333333 L14.0374025,19.3333333" id="Fill-6" fill="#FFFFFF" mask="url(#mask-4)"></path>
                    <path d="M26.4427245,6.97400197 C26.9633684,6.84924287 27.3922477,6.78662734 27.7287183,6.78662734 C28.2759257,6.78662734 28.7658204,6.91012783 29.1977585,7.15587021 C29.6292136,7.40239921 29.9624644,7.77352999 30.1963839,8.26879056 C30.4304644,8.76483776 30.5479876,9.3013176 30.5479876,9.87901672 C30.5479876,10.719764 30.3021548,11.4042871 29.8109721,11.9329007 C29.3191455,12.4613569 28.7342663,12.7256637 28.0552074,12.7256637 C27.8639505,12.7256637 27.6343777,12.7096165 27.3677771,12.6764208 C27.1005325,12.6432252 26.7923963,12.5941396 26.4427245,12.5283776 L26.4427245,6.97400197 Z M27.6482229,13.2873156 C28.0268731,13.3327827 28.3759009,13.3549656 28.6953065,13.3549656 C30.0109226,13.3549656 31.0309598,13.0145133 31.755418,12.3334513 C32.4798762,11.6525467 32.8421053,10.7688496 32.8421053,9.68235988 C32.8421053,8.88409046 32.603195,8.19327434 32.1258576,7.61069813 C31.6485201,7.02812193 31.0629969,6.61388397 30.368805,6.36798427 C29.674452,6.12287119 28.7229969,6 27.5155666,6 L22.5789474,6 L22.5789474,6.3539823 L23.0896099,6.3539823 C23.5964087,6.3539823 23.9800495,6.49887906 24.2403715,6.78835792 C24.4201981,6.99303835 24.5108359,7.5166175 24.5108359,8.35988201 L24.5108359,16.9734513 C24.5108359,17.7378958 24.4441858,18.2221436 24.3108854,18.4261947 C24.0637647,18.7949656 23.6567802,18.979351 23.0896099,18.979351 L22.5789474,18.979351 L22.5789474,19.3333333 L28.374613,19.3333333 L28.374613,18.979351 L27.8639505,18.979351 C27.3502291,18.979351 26.9696471,18.8349263 26.7231703,18.5448181 C26.5357771,18.340767 26.4427245,17.8165585 26.4427245,16.9734513 L26.4427245,13.0838938 C26.8679009,13.1741986 27.2697337,13.2418486 27.6482229,13.2873156 Z" id="Fill-7" fill="#FFFFFF" mask="url(#mask-4)"></path>
                    <path d="M16.911966,20.6666667 L16.911966,25.2542373 L16.5529856,25.2542373 C16.4326873,24.376113 16.2188945,23.6765876 15.9122455,23.1562938 C15.6055964,22.636 15.1668426,22.2226441 14.5966221,21.9167006 C14.0264017,21.6109153 13.4381525,21.4576271 12.8310767,21.4576271 C12.1442275,21.4576271 11.5752835,21.6670734 11.1253613,22.0854915 C10.6752797,22.5043842 10.4503186,22.980226 10.4503186,23.5141243 C10.4503186,23.923209 10.5932726,24.2951186 10.8798187,24.6312768 C11.286025,25.1256271 12.2583035,25.7849718 13.7971329,26.608678 C15.0553193,27.2809944 15.9128836,27.7963842 16.3698258,28.1548475 C16.8259703,28.5131525 17.1768138,28.935209 17.4217182,29.4216497 C17.6667822,29.9079322 17.7894737,30.4169944 17.7894737,30.9497853 C17.7894737,31.9618983 17.3955525,32.8344859 16.6078697,33.5673898 C15.8200274,34.3001356 14.8041926,34.6666667 13.5614822,34.6666667 C13.1756979,34.6666667 12.809857,34.6369266 12.4645976,34.5788701 C12.265164,34.5461243 11.842684,34.4274802 11.1981147,34.2229379 C10.5533859,34.0177627 10.1474987,33.9152542 9.98156998,33.9152542 C9.81548171,33.9152542 9.68369601,33.9639774 9.58780835,34.0617401 C9.49112296,34.1593446 9.41948643,34.3607232 9.37337739,34.6666667 L9.01439698,34.6666667 L9.01439698,30.079096 L9.37337739,30.079096 C9.54664527,31.044226 9.77782865,31.7662147 10.0677253,32.244904 C10.3568242,32.7243842 10.8011621,33.1223955 11.4007392,33.4394124 C11.9996781,33.7570621 12.6552561,33.9152542 13.3682709,33.9152542 C14.1934473,33.9152542 14.8440793,33.6964746 15.3201671,33.2578079 C15.7964144,32.8189831 16.0344583,32.3012203 16.0344583,31.7029379 C16.0344583,31.3707345 15.9454312,31.0350508 15.7683342,30.6963616 C15.5907586,30.3576723 15.3115516,30.0419209 14.9300751,29.7497401 C14.6802247,29.5508927 13.9777399,29.1348475 12.823578,28.5020791 C11.6694161,27.8693107 10.8511003,27.3619887 10.3692688,26.9802712 C9.88759688,26.5983955 9.52111777,26.176339 9.27062922,25.7153672 C9.01998112,25.2542373 8.89473684,24.747548 8.89473684,24.1938757 C8.89473684,23.2323842 9.26488553,22.4042486 10.0066188,21.7091525 C10.7475544,21.0145311 11.6868067,20.6666667 12.823578,20.6666667 C13.5346783,20.6666667 14.2893349,20.8371977 15.0870692,21.1769944 C15.4594515,21.3377175 15.721587,21.4180791 15.8749115,21.4180791 C16.0406807,21.4180791 16.1790078,21.368565 16.288776,21.2690621 C16.3983847,21.1695593 16.486295,20.9688136 16.5529856,20.6666667 L16.911966,20.6666667" id="Fill-8" fill="#FFFFFF" mask="url(#mask-4)"></path>
                    <path d="M32.1578947,20 L32.1578947,20.3631124 C31.6831966,20.4531643 31.3221494,20.6121268 31.0753964,20.8396772 C30.7275309,21.1787435 30.4166382,21.6969452 30.1428789,22.394928 L25.450874,34 L24.9856602,34 L19.9358232,22.2372565 C19.6746026,21.6162536 19.4911855,21.2368415 19.3844467,21.0980519 C19.2167832,20.884219 19.01279,20.7173487 18.7721455,20.5963112 C18.5310188,20.4752738 18.2040509,20.3978098 17.7894737,20.3631124 L17.7894737,20 L23.3498564,20 L23.3498564,20.3631124 C22.7282316,20.4236311 22.3237817,20.5307896 22.1366673,20.6852334 C21.949553,20.8396772 21.8559958,21.0375331 21.8559958,21.2791239 C21.8559958,21.6144784 22.0098347,22.1383285 22.3175124,22.8492219 L25.7535685,30.8523804 L28.9484978,22.9500865 C29.2624448,22.1717349 29.4201417,21.6314236 29.4201417,21.3294755 C29.4201417,21.1353314 29.3227265,20.9487723 29.1286999,20.770928 C28.9346732,20.593245 28.6107596,20.4670432 28.1559946,20.3932911 C28.1228798,20.3869971 28.0662954,20.3769914 27.9859198,20.3631124 L27.9859198,20 L32.1578947,20" id="Fill-9" fill="#FFFFFF" mask="url(#mask-4)"></path>
                </g>
                <path d="M60.312458,14.4916986 L59.0988077,14.4916986 L59.0988077,9.2605364 L59.062189,9.2605364 L56.8807573,14.4303959 L55.9600571,14.4303959 L53.7786254,9.2605364 L53.7420066,9.2605364 L53.7420066,14.4916986 L52.5231251,14.4916986 L52.5231251,7.12005109 L54.0872692,7.12005109 L56.3994822,12.6832695 L56.4413322,12.6832695 L58.7535451,7.12005109 L60.312458,7.12005109 L60.312458,14.4916986 Z M63.5912899,14.4916986 L62.2416271,14.4916986 L62.2416271,7.12005109 L63.5912899,7.12005109 L63.5912899,14.4916986 Z M66.8178093,14.4916986 L65.5152278,14.4916986 L65.5152278,7.12005109 L66.687028,7.12005109 L70.4326038,12.284802 L70.4796851,12.284802 L70.4796851,7.12005109 L71.7770353,7.12005109 L71.7770353,14.4916986 L70.6156976,14.4916986 L66.8648906,9.32183908 L66.8178093,9.32183908 L66.8178093,14.4916986 Z M75.0558673,14.4916986 L73.7062045,14.4916986 L73.7062045,7.12005109 L75.0558673,7.12005109 L75.0558673,14.4916986 Z M76.6711613,12.4176245 L77.9789741,12.4176245 C78.0626741,13.0970626 78.7584305,13.541507 79.6791307,13.541507 C80.5893684,13.541507 81.2223498,13.1021711 81.2223498,12.4891443 C81.2223498,11.9578544 80.8352372,11.651341 79.8831495,11.4316731 L78.9049056,11.2068966 C77.5133928,10.8952746 76.8542551,10.2413793 76.8542551,9.1890166 C76.8542551,7.88122605 78.0208241,6.99744572 79.663437,6.99744572 C81.3269748,6.99744572 82.4255375,7.8761175 82.456925,9.17369093 L81.1700373,9.17369093 C81.1072623,8.48403576 80.5161309,8.07024266 79.6529745,8.07024266 C78.8002805,8.07024266 78.2248429,8.4789272 78.2248429,9.09195402 C78.2248429,9.58237548 78.6067242,9.86845466 79.5326557,10.083014 L80.4010434,10.2771392 C81.9337999,10.6194125 82.5824751,11.2375479 82.5824751,12.3358876 C82.5824751,13.7356322 81.4315998,14.614304 79.6058932,14.614304 C77.8691178,14.614304 76.7287051,13.7765006 76.6711613,12.4176245 Z M87.3836011,14.4916986 L86.0391695,14.4916986 L86.0391695,8.23371648 L83.7792691,8.23371648 L83.7792691,7.12005109 L89.6382703,7.12005109 L89.6382703,8.23371648 L87.3836011,8.23371648 L87.3836011,14.4916986 Z M96.0401591,13.3780332 L96.0401591,14.4916986 L91.1541706,14.4916986 L91.1541706,7.12005109 L96.0401591,7.12005109 L96.0401591,8.23371648 L92.5038334,8.23371648 L92.5038334,10.2260536 L95.8466028,10.2260536 L95.8466028,11.2733078 L92.5038334,11.2733078 L92.5038334,13.3780332 L96.0401591,13.3780332 Z M99.1568222,8.18773946 L99.1568222,10.706258 L100.679116,10.706258 C101.537041,10.706258 102.03401,10.2413793 102.03401,9.44444444 C102.03401,8.66794381 101.505654,8.18773946 100.65296,8.18773946 L99.1568222,8.18773946 Z M99.1568222,11.7177522 L99.1568222,14.4916986 L97.8071595,14.4916986 L97.8071595,7.12005109 L100.804666,7.12005109 C102.436817,7.12005109 103.415061,8.00383142 103.415061,9.4137931 C103.415061,10.3895275 102.891936,11.201788 101.99216,11.5185185 L103.640004,14.4916986 L102.102017,14.4916986 L100.616341,11.7177522 L99.1568222,11.7177522 Z M104.789717,12.4176245 L106.09753,12.4176245 C106.18123,13.0970626 106.876986,13.541507 107.797687,13.541507 C108.707924,13.541507 109.340906,13.1021711 109.340906,12.4891443 C109.340906,11.9578544 108.953793,11.651341 108.001705,11.4316731 L107.023461,11.2068966 C105.631949,10.8952746 104.972811,10.2413793 104.972811,9.1890166 C104.972811,7.88122605 106.13938,6.99744572 107.781993,6.99744572 C109.445531,6.99744572 110.544093,7.8761175 110.575481,9.17369093 L109.288593,9.17369093 C109.225818,8.48403576 108.634687,8.07024266 107.77153,8.07024266 C106.918836,8.07024266 106.343399,8.4789272 106.343399,9.09195402 C106.343399,9.58237548 106.72528,9.86845466 107.651211,10.083014 L108.519599,10.2771392 C110.052356,10.6194125 110.701031,11.2375479 110.701031,12.3358876 C110.701031,13.7356322 109.550156,14.614304 107.724449,14.614304 C105.987674,14.614304 104.847261,13.7765006 104.789717,12.4176245 Z M115.502157,14.4916986 L114.157725,14.4916986 L114.157725,8.23371648 L111.897825,8.23371648 L111.897825,7.12005109 L117.756826,7.12005109 L117.756826,8.23371648 L115.502157,8.23371648 L115.502157,14.4916986 Z M122.92414,14.4916986 L121.375689,14.4916986 L118.749601,7.12005109 L120.235277,7.12005109 L122.149914,13.0766284 L122.181302,13.0766284 L124.09594,7.12005109 L125.550228,7.12005109 L122.92414,14.4916986 Z M130.21011,6.99744572 C132.407235,6.99744572 133.788286,8.46360153 133.788286,10.8084291 C133.788286,13.1532567 132.407235,14.614304 130.21011,14.614304 C128.007753,14.614304 126.626703,13.1532567 126.626703,10.8084291 C126.626703,8.46360153 128.007753,6.99744572 130.21011,6.99744572 Z M130.21011,8.12132822 C128.860447,8.12132822 128.007753,9.16347382 128.007753,10.8084291 C128.007753,12.4482759 128.860447,13.4904215 130.21011,13.4904215 C131.554541,13.4904215 132.412467,12.4482759 132.412467,10.8084291 C132.412467,9.16347382 131.554541,8.12132822 130.21011,8.12132822 Z M138.195905,7.12005109 L141.130637,7.12005109 C142.632006,7.12005109 143.673025,8.11621967 143.673025,9.58748404 C143.673025,11.0587484 142.600619,12.054917 141.073093,12.054917 L139.545568,12.054917 L139.545568,14.4916986 L138.195905,14.4916986 L138.195905,7.12005109 Z M139.545568,8.19795658 L139.545568,10.9923372 L140.769681,10.9923372 C141.737462,10.9923372 142.302437,10.4814815 142.302437,9.58748404 C142.302437,8.7037037 141.742694,8.19795658 140.774912,8.19795658 L139.545568,8.19795658 Z M146.601363,8.18773946 L146.601363,10.706258 L148.123657,10.706258 C148.981583,10.706258 149.478551,10.2413793 149.478551,9.44444444 C149.478551,8.66794381 148.950195,8.18773946 148.097501,8.18773946 L146.601363,8.18773946 Z M146.601363,11.7177522 L146.601363,14.4916986 L145.251701,14.4916986 L145.251701,7.12005109 L148.249207,7.12005109 C149.881358,7.12005109 150.859602,8.00383142 150.859602,9.4137931 C150.859602,10.3895275 150.336477,11.201788 149.436701,11.5185185 L151.084545,14.4916986 L149.546558,14.4916986 L148.060882,11.7177522 L146.601363,11.7177522 Z M157.475972,14.4916986 L156.832528,12.5862069 L154.054734,12.5862069 L153.41129,14.4916986 L152.019777,14.4916986 L154.698177,7.12005109 L156.220472,7.12005109 L158.898872,14.4916986 L157.475972,14.4916986 Z M155.425321,8.42273308 L154.368609,11.5696041 L156.513422,11.5696041 L155.46194,8.42273308 L155.425321,8.42273308 Z M156.011221,6.53256705 L154.954509,6.53256705 L156.121078,5 L157.392272,5 L156.011221,6.53256705 Z M163.244879,14.614304 C161.089604,14.614304 159.73471,13.1685824 159.73471,10.8033206 C159.73471,8.45338442 161.100066,6.99744572 163.244879,6.99744572 C164.997348,6.99744572 166.331317,8.0651341 166.498717,9.64878672 L165.16998,9.64878672 C164.992117,8.72413793 164.223123,8.11621967 163.244879,8.11621967 C161.947529,8.11621967 161.11576,9.15836526 161.11576,10.8033206 C161.11576,12.458493 161.942298,13.49553 163.25011,13.49553 C164.249279,13.49553 164.965961,12.9693487 165.175211,12.0804598 L166.498717,12.0804598 C166.263311,13.6590038 165.028736,14.614304 163.244879,14.614304 Z M173,13.3780332 L173,14.4916986 L168.114011,14.4916986 L168.114011,7.12005109 L173,7.12005109 L173,8.23371648 L169.463674,8.23371648 L169.463674,10.2260536 L172.806444,10.2260536 L172.806444,11.2733078 L169.463674,11.2733078 L169.463674,13.3780332 L173,13.3780332 Z M57.4561949,28.8773946 L56.812751,26.9719029 L54.0349567,26.9719029 L53.3915128,28.8773946 L52,28.8773946 L54.6784006,21.5057471 L56.2006946,21.5057471 L58.8790952,28.8773946 L57.4561949,28.8773946 Z M55.4055445,22.8084291 L54.3488317,25.9553001 L56.4936447,25.9553001 L55.4421632,22.8084291 L55.4055445,22.8084291 Z M62.7112772,26.8033206 L64.01909,26.8033206 C64.10279,27.4827586 64.7985464,27.9272031 65.7192466,27.9272031 C66.6294843,27.9272031 67.2624657,27.4878672 67.2624657,26.8748404 C67.2624657,26.3435504 66.8753531,26.037037 65.9232654,25.8173691 L64.9450214,25.5925926 C63.5535086,25.2809706 62.894371,24.6270754 62.894371,23.5747126 C62.894371,22.2669221 64.06094,21.3831418 65.7035528,21.3831418 C67.3670907,21.3831418 68.4656534,22.2618135 68.4970409,23.559387 L67.2101531,23.559387 C67.1473781,22.8697318 66.5562468,22.4559387 65.6930903,22.4559387 C64.8403964,22.4559387 64.2649588,22.8646232 64.2649588,23.4776501 C64.2649588,23.9680715 64.6468401,24.2541507 65.5727716,24.4687101 L66.4411592,24.6628352 C67.9739158,25.0051086 68.6225909,25.6232439 68.6225909,26.7215837 C68.6225909,28.1213282 67.4717157,29 65.6460091,29 C63.9092337,29 62.768821,28.1621967 62.7112772,26.8033206 Z M73.5597295,21.3831418 C75.7568549,21.3831418 77.1379052,22.8492976 77.1379052,25.1941252 C77.1379052,27.5389527 75.7568549,29 73.5597295,29 C71.3573728,29 69.9763225,27.5389527 69.9763225,25.1941252 C69.9763225,22.8492976 71.3573728,21.3831418 73.5597295,21.3831418 Z M73.5597295,22.5070243 C72.2100667,22.5070243 71.3573728,23.5491699 71.3573728,25.1941252 C71.3573728,26.8339719 72.2100667,27.8761175 73.5597295,27.8761175 C74.904161,27.8761175 75.7620862,26.8339719 75.7620862,25.1941252 C75.7620862,23.5491699 74.904161,22.5070243 73.5597295,22.5070243 Z M82.05935,29 C79.9040745,29 78.5491805,27.5542784 78.5491805,25.1890166 C78.5491805,22.8390805 79.914537,21.3831418 82.05935,21.3831418 C83.8118191,21.3831418 85.1457881,22.4508301 85.3131881,24.0344828 L83.9844504,24.0344828 C83.8065878,23.109834 83.0375939,22.5019157 82.05935,22.5019157 C80.7619997,22.5019157 79.9302308,23.5440613 79.9302308,25.1890166 C79.9302308,26.844189 80.7567684,27.8812261 82.0645812,27.8812261 C83.0637502,27.8812261 83.7804316,27.3550447 83.9896816,26.4661558 L85.3131881,26.4661558 C85.0777818,28.0446999 83.8432066,29 82.05935,29 Z M88.278145,28.8773946 L86.9284822,28.8773946 L86.9284822,21.5057471 L88.278145,21.5057471 L88.278145,28.8773946 Z M95.1351527,28.8773946 L94.4917088,26.9719029 L91.7139145,26.9719029 L91.0704706,28.8773946 L89.6789578,28.8773946 L92.3573583,21.5057471 L93.8796524,21.5057471 L96.558053,28.8773946 L95.1351527,28.8773946 Z M93.0845022,22.8084291 L92.0277895,25.9553001 L94.1726025,25.9553001 L93.121121,22.8084291 L93.0845022,22.8084291 Z M93.6704024,20.9182631 L92.6136896,20.9182631 L93.7802586,19.385696 L95.0514526,19.385696 L93.6704024,20.9182631 Z M102.734998,27.7637292 L102.734998,28.8773946 L97.9588657,28.8773946 L97.9588657,21.5057471 L99.3085285,21.5057471 L99.3085285,27.7637292 L102.734998,27.7637292 Z M105.600561,28.8773946 L104.29798,28.8773946 L104.29798,21.5057471 L105.46978,21.5057471 L109.215356,26.6704981 L109.262437,26.6704981 L109.262437,21.5057471 L110.559787,21.5057471 L110.559787,28.8773946 L109.398449,28.8773946 L105.647642,23.7075351 L105.600561,23.7075351 L105.600561,28.8773946 Z M113.838619,28.8773946 L112.488956,28.8773946 L112.488956,21.5057471 L113.838619,21.5057471 L113.838619,28.8773946 Z M113.7183,20.9182631 L112.661588,20.9182631 L113.828157,19.385696 L115.099351,19.385696 L113.7183,20.9182631 Z M119.016395,29 C116.86112,29 115.506226,27.5542784 115.506226,25.1890166 C115.506226,22.8390805 116.871582,21.3831418 119.016395,21.3831418 C120.768864,21.3831418 122.102833,22.4508301 122.270233,24.0344828 L120.941495,24.0344828 C120.763633,23.109834 119.994639,22.5019157 119.016395,22.5019157 C117.719045,22.5019157 116.887276,23.5440613 116.887276,25.1890166 C116.887276,26.844189 117.713814,27.8812261 119.021626,27.8812261 C120.020795,27.8812261 120.737477,27.3550447 120.946727,26.4661558 L122.270233,26.4661558 C122.034827,28.0446999 120.800252,29 119.016395,29 Z M130.25196,28.8773946 L128.907528,28.8773946 L128.907528,25.6794381 L125.23519,25.6794381 L125.23519,28.8773946 L123.885527,28.8773946 L123.885527,21.5057471 L125.23519,21.5057471 L125.23519,24.5708812 L128.907528,24.5708812 L128.907528,21.5057471 L130.25196,21.5057471 L130.25196,28.8773946 Z M138.567324,28.8773946 L137.018874,28.8773946 L134.392786,21.5057471 L135.878461,21.5057471 L137.793099,27.4623244 L137.824486,27.4623244 L139.739124,21.5057471 L141.193412,21.5057471 L138.567324,28.8773946 Z M147.480213,27.7637292 L147.480213,28.8773946 L142.594225,28.8773946 L142.594225,21.5057471 L147.480213,21.5057471 L147.480213,22.6194125 L143.943888,22.6194125 L143.943888,24.6117497 L147.286657,24.6117497 L147.286657,25.6590038 L143.943888,25.6590038 L143.943888,27.7637292 L147.480213,27.7637292 Z M144.535019,20.9795658 L143.101656,19.3959132 L144.153138,19.3959132 L145.021525,20.3767561 L145.052913,20.3767561 L145.921301,19.3959132 L146.972782,19.3959132 L145.539419,20.9795658 L144.535019,20.9795658 Z M152.501052,29 C150.345777,29 148.990883,27.5542784 148.990883,25.1890166 C148.990883,22.8390805 150.356239,21.3831418 152.501052,21.3831418 C154.253521,21.3831418 155.58749,22.4508301 155.75489,24.0344828 L154.426152,24.0344828 C154.24829,23.109834 153.479296,22.5019157 152.501052,22.5019157 C151.203702,22.5019157 150.371933,23.5440613 150.371933,25.1890166 C150.371933,26.844189 151.198471,27.8812261 152.506283,27.8812261 C153.505452,27.8812261 154.222134,27.3550447 154.431384,26.4661558 L155.75489,26.4661558 C155.519484,28.0446999 154.284909,29 152.501052,29 Z M158.719847,28.8773946 L157.370184,28.8773946 L157.370184,21.5057471 L158.719847,21.5057471 L158.719847,28.8773946 Z M158.599528,20.9182631 L157.542816,20.9182631 L158.709385,19.385696 L159.980579,19.385696 L158.599528,20.9182631 Z" id="Ministerstvo-Práce-a-Copy-2" fill="#FFFFFF"></path>
            </g>
        </g>
    </g>
</svg>